<svg xmlns="http://www.w3.org/2000/svg" viewBox="0 0 1200 720" role="img" aria-label="Phố ẩm thực Vĩnh Khánh ban đêm">
  <defs>
    <linearGradient id="bg" x1="0" y1="0" x2="1" y2="1">
      <stop offset="0%" stop-color="#08111d"/>
      <stop offset="55%" stop-color="#10263d"/>
      <stop offset="100%" stop-color="#1b0f24"/>
    </linearGradient>
    <linearGradient id="glow" x1="0" y1="0" x2="0" y2="1">
      <stop offset="0%" stop-color="#ffb347" stop-opacity="0.95"/>
      <stop offset="100%" stop-color="#ff6b6b" stop-opacity="0.05"/>
    </linearGradient>
    <linearGradient id="neon" x1="0" y1="0" x2="1" y2="0">
      <stop offset="0%" stop-color="#7dd3fc"/>
      <stop offset="100%" stop-color="#f7a046"/>
    </linearGradient>
  </defs>
  <rect width="1200" height="720" fill="url(#bg)"/>
  <circle cx="950" cy="150" r="110" fill="url(#glow)"/>
  <g opacity="0.35">
    <rect x="80" y="85" width="220" height="10" rx="5" fill="#7dd3fc"/>
    <rect x="120" y="120" width="340" height="10" rx="5" fill="#f7a046"/>
    <rect x="80" y="155" width="260" height="10" rx="5" fill="#9f7aea"/>
  </g>
  <g transform="translate(110,230)">
    <rect x="0" y="120" width="980" height="220" rx="28" fill="#09111a" stroke="#24354d" stroke-width="2"/>
    <g fill="#152235">
      <rect x="40" y="40" width="130" height="280" rx="18"/>
      <rect x="190" y="10" width="180" height="310" rx="18"/>
      <rect x="390" y="60" width="160" height="260" rx="18"/>
      <rect x="570" y="0" width="210" height="320" rx="18"/>
      <rect x="800" y="70" width="130" height="250" rx="18"/>
    </g>
    <g>
      <rect x="60" y="85" width="90" height="22" rx="11" fill="#f7a046"/>
      <rect x="210" y="65" width="120" height="22" rx="11" fill="#7dd3fc"/>
      <rect x="420" y="105" width="80" height="22" rx="11" fill="#9f7aea"/>
      <rect x="610" y="55" width="140" height="22" rx="11" fill="#ffcf70"/>
      <rect x="825" y="105" width="85" height="22" rx="11" fill="#7dd3fc"/>
    </g>
    <g fill="#f5f7fb" opacity="0.9">
      <rect x="90" y="140" width="20" height="24" rx="4"/>
      <rect x="120" y="140" width="20" height="24" rx="4"/>
      <rect x="230" y="120" width="26" height="28" rx="4"/>
      <rect x="270" y="120" width="26" height="28" rx="4"/>
      <rect x="640" y="110" width="26" height="28" rx="4"/>
      <rect x="680" y="110" width="26" height="28" rx="4"/>
      <rect x="860" y="145" width="18" height="22" rx="4"/>
      <rect x="890" y="145" width="18" height="22" rx="4"/>
    </g>
    <path d="M0 260h980" stroke="#2b3b52" stroke-width="2"/>
  </g>
  <g transform="translate(150,510)">
    <rect x="0" y="0" width="900" height="56" rx="28" fill="#0f1726" stroke="#2b3b52"/>
    <text x="450" y="36" text-anchor="middle" fill="#f5f7fb" font-family="Arial, sans-serif" font-size="24" font-weight="700">Phố ẩm thực Vĩnh Khánh - Đêm sáng đèn, món ngon mở cửa</text>
  </g>
</svg>
